<?xml version="1.0" encoding="UTF-8" standalone="no"?>
<svg
   width="97"
   height="45"
   viewBox="0 0 97 45"
   fill="none"
   version="1.1"
   id="svg4"
   sodipodi:docname="Reservia - Copie.svg"
   inkscape:version="1.1 (c68e22c387, 2021-05-23)"
   xmlns:inkscape="http://www.inkscape.org/namespaces/inkscape"
   xmlns:sodipodi="http://sodipodi.sourceforge.net/DTD/sodipodi-0.dtd"
   xmlns="http://www.w3.org/2000/svg"
   xmlns:svg="http://www.w3.org/2000/svg">
  <defs
     id="defs8" />
  <sodipodi:namedview
     id="namedview6"
     pagecolor="#ffffff"
     bordercolor="#666666"
     borderopacity="1.0"
     inkscape:pageshadow="2"
     inkscape:pageopacity="0.0"
     inkscape:pagecheckerboard="0"
     showgrid="true"
     inkscape:zoom="5.6568543"
     inkscape:cx="32.08497"
     inkscape:cy="12.993087"
     inkscape:window-width="1920"
     inkscape:window-height="1057"
     inkscape:window-x="-8"
     inkscape:window-y="-8"
     inkscape:window-maximized="1"
     inkscape:current-layer="layer2" />
  <g
     inkscape:groupmode="layer"
     id="layer2"
     inkscape:label="Layer 2">
    <ellipse
       style="fill:#ffffff;fill-rule:evenodd"
       id="path346"
       cx="48.43681"
       cy="23.864855"
       rx="64.346718"
       ry="43.133514" />
  </g>
  <g
     inkscape:groupmode="layer"
     id="layer1"
     inkscape:label="Layer 1"
     style="display:inline">
    <path
       d="m 13.167253,27.769758 c -0.2343,-0.7266 -0.4687,-1.3711 -0.7031,-1.9336 -0.2109,-0.5625 -0.3984,-1.043 -0.5625,-1.4414 -0.914,0.3047 -1.9101405,0.5156 -2.9882605,0.6328 0,1.5 0.03515,2.7774 0.10547,3.8321 0.02343,0.6562 0.04687,1.2187 0.07031,1.6874 0.04687,0.4454 0.08203,0.8321 0.10547,1.1602 0.04687,0.3281 0.09375,0.6211 0.14062,0.8789 0.04688,0.2813 0.11719,0.5508 0.21094,0.8086 -0.46875,0.3516 -0.92578,0.6094 -1.37109,0.7734 -0.42188,0.1641 -0.79688,0.2813 -1.125,0.3516 -0.39844,0.0938 -0.75,0.1172 -1.05469,0.0703 -0.11719,-0.3281 -0.22266,-0.6797 -0.31641,-1.0547 -0.09375,-0.3515 -0.16406,-0.8437 -0.21094,-1.4765 -0.02343,-0.6094 -0.03515,-1.3946 -0.03515,-2.3555 0,-0.9609 0.03515,-2.1914 0.10547,-3.6914 0.02344,-0.1641 0.03515,-0.3281 0.03515,-0.4922 0,-0.1641 0.01172,-0.3281 0.03516,-0.4922 -0.21094,-0.0234 -0.43359,-0.0469 -0.66797,-0.0703 -0.21094,-0.0234 -0.42187,-0.0469 -0.63281,-0.0703 -0.14063,-0.375 -0.23438,-0.7031 -0.28125,-0.9844 -0.04688,-0.3047 -0.07031,-0.5508 -0.07031,-0.7383 0,-0.2343 0.02343,-0.4218 0.07031,-0.5625 0.375,0.0703 0.75,0.1055 1.125,0.1055 h 0.52734 c 0.04688,-0.9844 0.09375,-1.9805 0.14063,-2.9883 0.04687,-1.0312 0.08203,-2.0273 0.10547,-2.9883 0.04687,-0.9843 0.08203,-1.9101 0.10546,-2.7773 0.02344,-0.8906 0.04688,-1.6992 0.07032,-2.4258 -0.70313,0.4688 -1.3125,1.0781 -1.82813,1.8281 -0.51562,0.75 -0.86719,1.6172 -1.05469,2.6016 -0.30468,-0.0469 -0.5625,-0.1875 -0.77343,-0.4219 -0.21094,-0.2578 -0.38672,-0.5156 -0.52735,-0.7734 -0.16406,-0.3047 -0.30468,-0.6445 -0.421871,-1.0195 -0.117188,-0.4453 -0.117188,-0.8907 0,-1.336 0.117191,-0.4687 0.292971,-0.9023 0.527341,-1.3008 0.23438,-0.4218 0.50391,-0.7851 0.8086,-1.0898 0.30468,-0.3281003 0.59765,-0.5859003 0.8789,-0.7734003 0.49219,-0.3047 0.9961,-0.5743 1.51172,-0.8086 0.53906,-0.25784 1.13672,-0.46878 1.79297,-0.63284 0.25781,-0.25782 0.53906,-0.49219 0.84375,-0.70313 0.32813,-0.21094 0.63281,-0.33984 0.91406,-0.38672 0.39844,-0.09375 0.6211,0.15235 0.66797,0.73828 0.21094,-0.02343 0.4336,-0.03515 0.6679695,-0.03515 0.234371,-0.02344 0.480451,-0.03516 0.738251,-0.03516 0.8907,0 1.8164,0.14063 2.7774,0.42188 0.9609,0.28125 1.8398,0.73824 2.6367,1.37104 0.8203,0.6094 1.4883,1.4180003 2.0039,2.4258003 0.5156,0.9844 0.7734,2.1914 0.7734,3.6211 0,1.6172 -0.3867,3.1055 -1.1601,4.4649 -0.75,1.3593 -1.8281,2.4843 -3.2344,3.375 0.1641,0.4218 0.375,0.9492 0.6328,1.582 0.2578,0.6328 0.5156,1.3477 0.7735,2.1445 0.375,0.9844 0.7734,1.9102 1.1953,2.7774 0.4453,0.8437 0.9023,1.582 1.3711,2.2148 0.4687,0.6328 0.9609,1.1367 1.4765,1.5117 0.5157,0.3985 1.0313,0.6328 1.5469,0.7032 -0.3047,0.4687 -0.6562,0.7968 -1.0547,0.9843 -0.3984,0.1875 -0.7969,0.3047 -1.1953,0.3516 -0.4453,0.0703 -0.9141,0.0703 -1.4062,0 -0.6797,-0.1406 -1.2657,-0.4687 -1.7579,-0.9844 -0.4921,-0.5156 -0.9257,-1.1367 -1.3007,-1.8633 -0.3516,-0.7265 -0.6797,-1.5 -0.9844,-2.3203 -0.2813,-0.8437 -0.5391,-1.6406 -0.7735,-2.3906 z m -4.0780805,-14.9766 c 0,0.5157 -0.01172,1.1368 -0.03516,1.8633 -0.02344,0.7266 -0.04687,1.5117 -0.07031,2.3555 0,0.8437 -0.01172,1.7344 -0.03516,2.6719 -0.02343,0.914 -0.03515,1.8281 -0.03515,2.7422 0.63281,-0.0938 1.3242205,-0.2461 2.0742605,-0.4571 0.7734,-0.2109 1.4882,-0.5625 2.1445,-1.0547 0.6562,-0.4922 1.207,-1.1484 1.6523,-1.9687 0.4453,-0.8203 0.668,-1.875 0.668,-3.1641 0,-0.9844 -0.1758,-1.8164 -0.5273,-2.4961 -0.3282,-0.7031 -0.7618,-1.2656 -1.3008,-1.6875 -0.5391,-0.4453 -1.1367,-0.7617 -1.793,-0.9492 -0.6328,-0.2109 -1.2656,-0.3164 -1.8984305,-0.3164 -0.11719,0 -0.23438,0 -0.35156,0 -0.11719,0 -0.2461,0.0117 -0.38672,0.0352 -0.07031,0.75 -0.10547,1.5586 -0.10547,2.4257 z m 16.5937805,18.9844 c -1.6407,0 -2.9063,-0.5508 -3.7969,-1.6523 -0.8906,-1.1016 -1.3359,-2.543 -1.3359,-4.3242 0,-1.2422 0.1757,-2.4024 0.5273,-3.4805 0.375,-1.1016 0.8672,-2.0508 1.4766,-2.8477 0.6093,-0.7968 1.3125,-1.4179 2.1093,-1.8632 0.8204,-0.4688 1.6758,-0.7032 2.5664,-0.7032 0.8672,0 1.6055,0.3164 2.2149,0.9492 0.6094,0.6094 0.9141,1.4883 0.9141,2.6368 0,0.75 -0.1641,1.5 -0.4922,2.25 -0.3282,0.7265 -0.7618,1.3828 -1.3008,1.9687 -0.5156,0.5625 -1.0899,1.0195 -1.7227,1.3711 -0.6328,0.3516 -1.2422,0.5274 -1.8281,0.5274 -0.375,0 -0.6914,-0.0469 -0.9492,-0.1407 -0.2578,-0.0937 -0.4922,-0.2343 -0.7031,-0.4219 0.0703,1.336 0.3632,2.2735 0.8789,2.8126 0.5156,0.5156 1.1836,0.7734 2.0039,0.7734 0.5625,0 1.0547,-0.1172 1.4765,-0.3516 0.4453,-0.2344 0.8203,-0.5039 1.125,-0.8086 0.3047,-0.3047 0.5508,-0.6093 0.7383,-0.914 0.1875,-0.3282 0.3164,-0.5742 0.3867,-0.7383 0.0703,-0.1406 0.1875,-0.2109 0.3516,-0.2109 0.1875,0 0.2812,0.1406 0.2812,0.4218 0,0.2578 -0.0937,0.6563 -0.2812,1.1953 -0.1641,0.5157 -0.4453,1.043 -0.8438,1.5821 -0.3984,0.5156 -0.914,0.9726 -1.5468,1.3711 -0.6094,0.3984 -1.3594,0.5976 -2.25,0.5976 z m 1.6172,-13.3594 c -0.1407,0 -0.4102,0.1524 -0.8086,0.4571 -0.375,0.2812 -0.7852,0.7031 -1.2305,1.2656 -0.4219,0.5625 -0.8203,1.2422 -1.1953,2.0391 -0.3516,0.7734 -0.5742,1.6523 -0.668,2.6367 1.4063,-0.3281 2.5195,-0.8438 3.3399,-1.5469 0.8203,-0.7031 1.2304,-1.7344 1.2304,-3.0937 0,-0.6797 -0.082,-1.1368 -0.2461,-1.3711 -0.164,-0.2579 -0.3047,-0.3868 -0.4218,-0.3868 z m 10.8984,6.293 c 0.5156,0.1875 1.0078,0.3633 1.4766,0.5274 0.4687,0.164 0.8789,0.3632 1.2304,0.5976 0.3516,0.2344 0.6328,0.5156 0.8438,0.8438 0.2109,0.3047 0.3164,0.6914 0.3164,1.1601 0,0.5625 -0.1289,1.0899 -0.3867,1.582 -0.2344,0.4922 -0.586,0.9258 -1.0547,1.3008 -0.4688,0.375 -1.043,0.668 -1.7227,0.8789 -0.6562,0.2344 -1.3945,0.3516 -2.2148,0.3516 -0.9141,0 -1.6524,-0.0937 -2.2149,-0.2813 -0.5625,-0.164 -0.9961,-0.3632 -1.3008,-0.5976 -0.3046,-0.2344 -0.5039,-0.4688 -0.5976,-0.7031 -0.0938,-0.2344 -0.1406,-0.4219 -0.1406,-0.5625 0,-0.2813 0.0586,-0.586 0.1758,-0.9141 0.1171,-0.3516 0.3398,-0.7266 0.6679,-1.125 0.1406,-0.1641 0.293,-0.3164 0.4571,-0.457 0.3281,-0.2813 0.6562,-0.4571 0.9843,-0.5274 -0.0469,0.5391 0.0117,0.9844 0.1758,1.336 0.1875,0.3281 0.4219,0.5859 0.7031,0.7734 0.3047,0.1875 0.6328,0.3164 0.9844,0.3867 0.375,0.0703 0.7266,0.1055 1.0547,0.1055 0.3281,0 0.6562,-0.0469 0.9844,-0.1406 0.3515,-0.0938 0.6679,-0.211 0.9492,-0.3516 0.2812,-0.1641 0.5039,-0.3398 0.668,-0.5273 0.1875,-0.211 0.2812,-0.4336 0.2812,-0.668 0,-0.2578 -0.1055,-0.4688 -0.3164,-0.6328 -0.2109,-0.1641 -0.4805,-0.293 -0.8086,-0.3867 -0.3047,-0.1172 -0.6445,-0.1993 -1.0195,-0.2461 -0.3516,-0.0703 -0.6914,-0.1407 -1.0196,-0.211 -0.3281,-0.0703 -0.7734,-0.164 -1.3359,-0.2812 -0.5391,-0.1406 -1.0781,-0.3516 -1.6172,-0.6328 -0.5156,-0.2813 -0.9726,-0.6563 -1.3711,-1.125 -0.375,-0.4688 -0.5625,-1.0899 -0.5625,-1.8633 0,-0.8906 0.2227,-1.6641 0.668,-2.3203 0.4687,-0.6797 1.0312,-1.2422 1.6875,-1.6875 0.6797,-0.4688 1.3945,-0.8203 2.1445,-1.0547 0.75,-0.2344 1.418,-0.3516 2.0039,-0.3516 0.3047,0 0.6328,0.0469 0.9844,0.1406 0.3516,0.0704 0.6797,0.211 0.9844,0.4219 0.3047,0.1875 0.5508,0.4453 0.7383,0.7735 0.2109,0.3281 0.3164,0.75 0.3164,1.2656 0,0.5156 -0.0469,0.9375 -0.1407,1.2656 -0.0703,0.3047 -0.1875,0.5508 -0.3515,0.7383 -0.1406,0.1641 -0.3164,0.2695 -0.5274,0.3164 -0.2109,0.0469 -0.457,0.0703 -0.7382,0.0703 -0.1875,0 -0.3633,-0.0234 -0.5274,-0.0703 -0.1406,-0.0469 -0.293,-0.0937 -0.457,-0.1406 -0.1641,-0.0469 -0.3164,-0.1289 -0.4571,-0.2461 0.2344,-0.2813 0.4102,-0.5508 0.5274,-0.8086 0.1406,-0.2578 0.2109,-0.5742 0.2109,-0.9492 0,-0.3282 -0.0937,-0.6211 -0.2812,-0.8789 -0.1641,-0.2579 -0.4453,-0.3868 -0.8438,-0.3868 -0.4218,0 -0.832,0.0821 -1.2304,0.2461 -0.375,0.1641 -0.7149,0.3868 -1.0196,0.668 -0.2812,0.2813 -0.5156,0.6094 -0.7031,0.9844 -0.1641,0.3515 -0.2461,0.7383 -0.2461,1.1601 0,0.6329 0.2344,1.2305 0.7031,1.793 0.4922,0.5625 1.2539,1.043 2.2852,1.4414 z m 10.6172,7.0664 c -1.6406,0 -2.9063,-0.5508 -3.7969,-1.6523 -0.8906,-1.1016 -1.3359,-2.543 -1.3359,-4.3242 0,-1.2422 0.1758,-2.4024 0.5273,-3.4805 0.375,-1.1016 0.8672,-2.0508 1.4766,-2.8477 0.6093,-0.7968 1.3125,-1.4179 2.1093,-1.8632 0.8204,-0.4688 1.6758,-0.7032 2.5665,-0.7032 0.867103,0 1.605403,0.3164 2.214803,0.9492 0.6094,0.6094 0.9141,1.4883 0.9141,2.6368 0,0.75 -0.1641,1.5 -0.4922,2.25 -0.3282,0.7265 -0.7617,1.3828 -1.3008,1.9687 -0.5156,0.5625 -1.0898,1.0195 -1.722703,1.3711 -0.6328,0.3516 -1.2421,0.5274 -1.8281,0.5274 -0.375,0 -0.6914,-0.0469 -0.9492,-0.1407 -0.2578,-0.0937 -0.4922,-0.2343 -0.7031,-0.4219 0.0703,1.336 0.3633,2.2735 0.8789,2.8126 0.5156,0.5156 1.1836,0.7734 2.0039,0.7734 0.5625,0 1.0547,-0.1172 1.476503,-0.3516 0.4454,-0.2344 0.8204,-0.5039 1.125,-0.8086 0.3047,-0.3047 0.5508,-0.6093 0.7383,-0.914 0.1875,-0.3282 0.3164,-0.5742 0.3867,-0.7383 0.0704,-0.1406 0.1875,-0.2109 0.3516,-0.2109 0.1875,0 0.2813,0.1406 0.2813,0.4218 0,0.2578 -0.0938,0.6563 -0.2813,1.1953 -0.1641,0.5157 -0.4453,1.043 -0.8437,1.5821 -0.3985,0.5156 -0.9141,0.9726 -1.5469,1.3711 -0.609403,0.3984 -1.359403,0.5976 -2.250003,0.5976 z m 1.6172,-13.3594 c -0.1407,0 -0.4102,0.1524 -0.8086,0.4571 -0.375,0.2812 -0.7852,0.7031 -1.2305,1.2656 -0.4219,0.5625 -0.8203,1.2422 -1.1953,2.0391 -0.3516,0.7734 -0.5742,1.6523 -0.668,2.6367 1.4063,-0.3281 2.5196,-0.8438 3.3399,-1.5469 0.820303,-0.7031 1.230403,-1.7344 1.230403,-3.0937 0,-0.6797 -0.082,-1.1368 -0.2461,-1.3711 -0.164,-0.2579 -0.3046,-0.3868 -0.421803,-0.3868 z m 14.871103,2.1797 c 0,0.3282 -0.0938,0.668 -0.2813,1.0196 -0.164,0.3281 -0.375,0.6445 -0.6328,0.9492 -0.2578,0.3047 -0.5508,0.5742 -0.8789,0.8086 -0.3047,0.2109 -0.5977,0.3398 -0.8789,0.3867 0.1875,-0.7266 0.2461,-1.2891 0.1758,-1.6875 -0.0703,-0.3984 -0.1875,-0.6914 -0.3516,-0.8789 -0.1875,-0.2109 -0.4219,-0.3281 -0.7031,-0.3516 -0.4219,0 -0.8321,0.2461 -1.2305,0.7383 -0.375,0.4688 -0.7031,1.0547 -0.9844,1.7578 -0.2812,0.6797 -0.5039,1.418 -0.6679,2.2149 -0.1641,0.7734 -0.2461,1.4765 -0.2461,2.1093 -0.0235,0.4454 -0.0117,0.8789 0.0351,1.3008 0.0235,0.3516 0.0586,0.7149 0.1055,1.0899 0.0703,0.375 0.1641,0.6679 0.2812,0.8789 -0.1406,0.1172 -0.375,0.2578 -0.7031,0.4218 -0.3047,0.1641 -0.6328,0.2696 -0.9843,0.3164 -0.3282,0.0469 -0.6329,-0.0117 -0.9141,-0.1757 -0.2578,-0.1641 -0.3985,-0.5157 -0.4219,-1.0547 -0.0469,-0.5156 -0.082,-1.0899 -0.1055,-1.7227 0,-0.6562 0,-1.3008 0,-1.9336 0.0235,-0.6562 0.0469,-1.3007 0.0704,-1.9336 0.0234,-0.6328 0.0585,-1.2187 0.1054,-1.7578 0.0469,-1.0312 0.0703,-1.8281 0.0703,-2.3906 0,-0.5625 -0.0117,-1.1016 -0.0351,-1.6172 0,-0.0937 0.1523,-0.2226 0.457,-0.3867 0.3281,-0.1875 0.6797,-0.3516 1.0547,-0.4922 0.3984,-0.1406 0.7617,-0.2226 1.0898,-0.2461 0.3282,-0.0234 0.4922,0.0469 0.4922,0.2109 0,0.2579 -0.0351,0.7735 -0.1054,1.5469 -0.0469,0.75 -0.1172,1.5352 -0.211,2.3555 0.1641,-0.4453 0.375,-0.9258 0.6328,-1.4414 0.2813,-0.5156 0.5977,-0.9961 0.9493,-1.4414 0.3515,-0.4453 0.75,-0.8086 1.1953,-1.0899 0.4453,-0.3047 0.9375,-0.457 1.4765,-0.457 0.4219,0 0.7617,0.1289 1.0196,0.3867 0.2812,0.2578 0.5039,0.5508 0.6679,0.8789 0.1641,0.3282 0.2813,0.6563 0.3516,0.9844 0.0703,0.3281 0.1055,0.5625 0.1055,0.7031 z m 5.6601,8.9649 c 0.211,0 0.4922,-0.375 0.8438,-1.125 0.3515,-0.75 0.6797,-1.6524 0.9843,-2.7071 0.3282,-1.0546 0.586,-2.1445 0.7735,-3.2695 0.2109,-1.125 0.2695,-2.0742 0.1758,-2.8476 -0.0469,-0.2579 -0.1172,-0.4688 -0.211,-0.6329 -0.0703,-0.164 -0.164,-0.3398 -0.2812,-0.5273 0.1406,-0.1875 0.3164,-0.3281 0.5273,-0.4219 0.211,-0.1172 0.4102,-0.1992 0.5977,-0.2461 0.2344,-0.0703 0.4687,-0.1172 0.7031,-0.1406 0.5625,-0.0234 0.9727,0.0703 1.2305,0.2813 0.1406,0.1406 0.2109,0.4687 0.2109,0.9843 0,0.5157 -0.0586,1.125 -0.1758,1.8282 -0.0937,0.6796 -0.2343,1.4062 -0.4219,2.1796 -0.164,0.75 -0.3515,1.4415 -0.5624,2.0743 -0.211,0.6093 -0.4688,1.2773 -0.7735,2.0039 -0.3047,0.7031 -0.6211,1.3828 -0.9492,2.039 -0.3281,0.6328 -0.6563,1.1836 -0.9844,1.6524 -0.3281,0.4453 -0.6094,0.7148 -0.8437,0.8086 -0.4922,0.1875 -0.9844,0.2812 -1.4766,0.2812 -0.4687,0 -0.7617,-0.0586 -0.8789,-0.1758 -0.0469,-0.0468 -0.1523,-0.2109 -0.3164,-0.4921 -0.1641,-0.2813 -0.3516,-0.6446 -0.5625,-1.0899 -0.1875,-0.4453 -0.3984,-0.9609 -0.6328,-1.5469 -0.211,-0.6093 -0.3985,-1.2539 -0.5625,-1.9336 -0.1641,-0.6796 -0.2813,-1.4179 -0.3516,-2.2148 -0.0703,-0.7969 -0.1523,-1.5703 -0.2461,-2.3203 -0.0703,-0.7735 -0.1758,-1.4883 -0.3164,-2.1445 -0.1406,-0.6563 -0.3515,-1.1954 -0.6328,-1.6172 l 1.6524,-0.668 c 0.1406,-0.0703 0.3046,-0.1289 0.4921,-0.1758 0.1875,-0.0703 0.375,-0.0937 0.5625,-0.0703 0.1875,0.0234 0.3516,0.1172 0.4922,0.2813 0.1641,0.1406 0.2696,0.3984 0.3164,0.7734 0.0469,0.4219 0.0821,0.9258 0.1055,1.5117 0.0469,0.5859 0.082,1.1953 0.1055,1.8281 0.0468,0.6328 0.0937,1.2657 0.1406,1.8985 0.0469,0.6093 0.0937,1.1601 0.1406,1.6523 0.0469,0.5156 0.1055,1.0313 0.1758,1.5469 0.0938,0.5156 0.1875,0.9726 0.2812,1.3711 0.1172,0.3984 0.2227,0.7265 0.3165,0.9844 0.1171,0.2578 0.2343,0.3867 0.3515,0.3867 z m 7.6289,-10.6172 c 0,-0.1406 0.1875,-0.293 0.5625,-0.457 0.375,-0.1641 0.7852,-0.293 1.2305,-0.3868 0.4687,-0.1171 0.8906,-0.1757 1.2656,-0.1757 0.3985,-0.0235 0.5977,0.0586 0.5977,0.246 0,0.3516 -0.0235,0.8555 -0.0703,1.5118 -0.0469,0.6328 -0.1055,1.3125 -0.1758,2.039 -0.0703,0.7032 -0.1406,1.418 -0.211,2.1446 -0.0703,0.7031 -0.1171,1.3007 -0.1406,1.7929 -0.0469,0.5157 -0.0937,1.0782 -0.1406,1.6875 -0.0469,0.5157 -0.082,1.0899 -0.1055,1.7227 -0.0234,0.6328 -0.0234,1.2773 0,1.9336 0,0.1172 -0.1172,0.2344 -0.3515,0.3515 -0.2344,0.1172 -0.4922,0.1993 -0.7735,0.2461 -0.2812,0.0703 -0.5508,0.1055 -0.8086,0.1055 -0.2578,0 -0.3984,-0.0469 -0.4218,-0.1406 -0.0469,-0.0938 -0.0938,-0.2578 -0.1407,-0.4922 -0.0468,-0.2344 -0.0937,-0.5625 -0.1406,-0.9844 -0.0469,-0.4453 -0.082,-1.0078 -0.1055,-1.6875 -0.0234,-0.7031 -0.0117,-1.5469 0.0352,-2.5312 0.0937,-1.9453 0.1055,-3.4453 0.0352,-4.5 -0.0704,-1.0782 -0.1172,-1.8867 -0.1407,-2.4258 z m 2.461,-6.9961 c 0.4687,0 0.914,0.1406 1.3359,0.4219 0.4219,0.2812 0.6328,0.6562 0.6328,1.125 0,0.3515 -0.0937,0.6914 -0.2812,1.0195 -0.1641,0.3281 -0.375,0.6211 -0.6328,0.8789 -0.2579,0.2578 -0.5508,0.4688 -0.879,0.6328 -0.3281,0.1406 -0.6328,0.211 -0.914,0.211 -0.375,0 -0.6797,-0.0586 -0.9141,-0.1758 -0.2344,-0.1407 -0.4219,-0.293 -0.5625,-0.4571 -0.1172,-0.1875 -0.1992,-0.3867 -0.2461,-0.5976 -0.0469,-0.211 -0.0703,-0.4102 -0.0703,-0.5977 0,-0.2343 0.0352,-0.4922 0.1055,-0.7734 0.0703,-0.3047 0.1992,-0.5742 0.3867,-0.8086 0.1875,-0.2578 0.4453,-0.4688 0.7734,-0.6328 0.3282,-0.1641 0.75,-0.2461 1.2657,-0.2461 z m -0.8789,3.2695 c 0.1406,0 0.2929,-0.0469 0.457,-0.1406 0.1875,-0.1172 0.3516,-0.2461 0.4922,-0.3867 0.164,-0.1406 0.2929,-0.293 0.3867,-0.457 0.1172,-0.1641 0.1758,-0.3047 0.1758,-0.4219 0,-0.1875 -0.0938,-0.2813 -0.2813,-0.2813 -0.1172,0 -0.2695,0.0469 -0.457,0.1406 -0.1641,0.0938 -0.3281,0.211 -0.4922,0.3516 -0.1641,0.1172 -0.3047,0.2578 -0.4219,0.4219 -0.0937,0.1406 -0.1406,0.2812 -0.1406,0.4219 0,0.2343 0.0938,0.3515 0.2813,0.3515 z m 14.6601,14.3789 c 0.0469,0.1641 0.1172,0.3164 0.2109,0.4571 0.0704,0.1171 0.1641,0.2343 0.2813,0.3515 0.1406,0.0938 0.3047,0.1524 0.4922,0.1758 -0.1641,0.3281 -0.3281,0.5508 -0.4922,0.668 -0.0937,0.0703 -0.1758,0.1172 -0.2461,0.1406 -0.2109,0.0703 -0.5273,0.1055 -0.9492,0.1055 -0.4219,0 -0.832,-0.1289 -1.2305,-0.3867 -0.1406,-0.1172 -0.2695,-0.293 -0.3867,-0.5274 -0.1172,-0.1875 -0.2227,-0.4453 -0.3164,-0.7734 -0.0703,-0.3516 -0.1289,-0.7969 -0.1758,-1.336 -0.3281,0.7032 -0.7031,1.2657 -1.125,1.6875 -0.3984,0.3985 -0.7969,0.6914 -1.1953,0.8789 -0.4453,0.2578 -0.9023,0.4102 -1.3711,0.4571 -0.5859,0.0468 -1.1484,-0.0469 -1.6875,-0.2813 -0.5156,-0.2578 -0.9609,-0.6328 -1.3359,-1.125 -0.3516,-0.5156 -0.6211,-1.1367 -0.8086,-1.8633 -0.1875,-0.7265 -0.2461,-1.5468 -0.1758,-2.4609 0.0703,-0.9609 0.2578,-1.8164 0.5625,-2.5664 0.3047,-0.75 0.668,-1.418 1.0898,-2.0039 0.4219,-0.5859 0.8672,-1.0781 1.336,-1.4766 0.4687,-0.4219 0.914,-0.7617 1.3359,-1.0195 0.4453,-0.2813 0.8203,-0.4805 1.125,-0.5977 0.3281,-0.1406 0.5391,-0.2226 0.6328,-0.2461 0.2578,-0.0703 0.4805,-0.0937 0.668,-0.0703 0.1875,0.0235 0.3516,0.1289 0.4922,0.3164 0.0469,0.0703 0.1054,0.1524 0.1758,0.2461 0.0468,0.0938 0.1054,0.2227 0.1757,0.3868 0.0704,0.1406 0.1289,0.3046 0.1758,0.4921 -0.5625,0.2579 -1.0898,0.5508 -1.582,0.8789 -0.4922,0.3047 -0.9492,0.6797 -1.3711,1.125 -0.3984,0.4454 -0.75,0.9844 -1.0547,1.6172 -0.3047,0.6328 -0.5391,1.4063 -0.7031,2.3203 -0.2344,1.1485 -0.1758,2.0743 0.1758,2.7774 0.375,0.7031 0.8789,0.9961 1.5117,0.8789 0.375,-0.1172 0.7383,-0.3398 1.0898,-0.668 0.3047,-0.2812 0.6211,-0.7031 0.9493,-1.2656 0.3515,-0.5625 0.6796,-1.3359 0.9843,-2.3203 0.1172,-1.4063 0.211,-2.5078 0.2813,-3.3047 0.0937,-0.8203 0.1758,-1.4414 0.2461,-1.8633 0.0937,-0.4922 0.164,-0.8203 0.2109,-0.9844 0.0703,-0.1171 0.2109,-0.2226 0.4219,-0.3164 0.2109,-0.1171 0.4453,-0.2109 0.7031,-0.2812 0.2578,-0.0703 0.4922,-0.1055 0.7031,-0.1055 0.211,-0.0234 0.3516,-0.0234 0.4219,0 0.0469,0.0235 0.0703,0.3164 0.0703,0.8789 0,0.5391 -0.0234,1.2305 -0.0703,2.0742 -0.0234,0.8204 -0.0586,1.7227 -0.1055,2.7071 -0.0468,0.9609 -0.0937,1.875 -0.1406,2.7422 -0.0234,0.8672 -0.0469,1.6289 -0.0703,2.2851 0,0.6328 0.0234,1.0313 0.0703,1.1953 z"
       fill="#0065fc"
       id="path2" />
  </g>
</svg>
